STARTFONT 2.1
COMMENT $XConsortium: lubR18.bdf,v 1.9 94/04/02 16:25:22 gildea Exp $
COMMENT  (c) Copyright Bigelow & Holmes 1986, 1985. Lucida is a registered
COMMENT  trademark of Bigelow & Holmes. See LEGAL NOTICE file for terms 
COMMENT  of the license. 
COMMENT  
COMMENT  Translation to ISO8859-2 by Cub Soft;  Petr.Kolar@vslib.cz
COMMENT  
FONT -B&H-LucidaBright-Medium-R-Normal--25-180-100-100-P-142-ISO8859-2
SIZE 18 100 100
FONTBOUNDINGBOX 41 28 -15 -5
STARTPROPERTIES 20
COMMENT Begin LogicalFontDescription
FONTNAME_REGISTRY ""
FOUNDRY "B&H"
FAMILY_NAME "LucidaBright"
WEIGHT_NAME "Medium"
SLANT "R"
SETWIDTH_NAME "Normal"
ADD_STYLE_NAME ""
PIXEL_SIZE 25
POINT_SIZE 180
RESOLUTION_X 100
RESOLUTION_Y 100
SPACING "P"
AVERAGE_WIDTH 142
CHARSET_REGISTRY "ISO8859"
CHARSET_ENCODING "2"
COMMENT END LogicalFontDescription
FONT_ASCENT 23
FONT_DESCENT 6
DEFAULT_CHAR 0
COPYRIGHT "Copyright Bigelow & Holmes 1986, 1985., Copyright 1996 Cub Soft"
FACE_NAME "Lucida Bright"
ENDPROPERTIES
CHARS 191
STARTCHAR space
ENCODING 32
SWIDTH 333 0
DWIDTH 8 0
BBX 1 1 0 0
BITMAP
00
ENDCHAR
STARTCHAR exclam
ENCODING 33
SWIDTH 265 0
DWIDTH 7 0
BBX 3 18 2 0
BITMAP
e0
e0
e0
e0
e0
e0
e0
e0
40
40
40
40
40
00
00
e0
e0
e0
ENDCHAR
STARTCHAR quotedbl
ENCODING 34
SWIDTH 386 0
DWIDTH 10 0
BBX 7 5 1 13
BITMAP
ee
ee
ee
44
44
ENDCHAR
STARTCHAR numbersign
ENCODING 35
SWIDTH 608 0
DWIDTH 15 0
BBX 15 18 0 0
BITMAP
0318
0318
0330
0630
0630
7ffe
7ffe
0660
0c60
0c60
0cc0
fffc
fffc
18c0
18c0
1980
3180
3180
ENDCHAR
STARTCHAR dollar
ENCODING 36
SWIDTH 608 0
DWIDTH 15 0
BBX 10 21 3 -2
BITMAP
0400
0f80
35c0
74c0
74c0
7400
7400
7c00
3c00
1e00
0f80
0780
07c0
05c0
05c0
c5c0
c580
e780
7e00
0400
0400
ENDCHAR
STARTCHAR percent
ENCODING 37
SWIDTH 675 0
DWIDTH 17 0
BBX 17 18 0 0
BITMAP
3c0380
660300
c30600
c30c00
c31c00
c33800
c37000
66e000
3cc000
019e00
03b300
076180
0e6180
1c6180
186180
306180
603300
e01e00
ENDCHAR
STARTCHAR ampersand
ENCODING 38
SWIDTH 690 0
DWIDTH 17 0
BBX 16 18 1 0
BITMAP
0780
0cc0
1ce0
1ce0
1ce0
0cc0
0f80
0e00
371f
670c
e38c
e3cc
e1e8
e1f0
f0f0
78f8
3fde
1f1f
ENDCHAR
STARTCHAR apostrophe
ENCODING 39
SWIDTH 265 0
DWIDTH 7 0
BBX 3 6 2 12
BITMAP
e0
e0
60
60
60
c0
ENDCHAR
STARTCHAR parenleft
ENCODING 40
SWIDTH 316 0
DWIDTH 8 0
BBX 6 22 1 -4
BITMAP
04
08
18
30
30
70
60
e0
e0
e0
e0
e0
e0
e0
e0
60
70
30
30
18
08
04
ENDCHAR
STARTCHAR parenright
ENCODING 41
SWIDTH 316 0
DWIDTH 8 0
BBX 6 22 1 -4
BITMAP
80
40
60
30
30
38
18
1c
1c
1c
1c
1c
1c
1c
1c
18
38
30
30
60
40
80
ENDCHAR
STARTCHAR asterisk
ENCODING 42
SWIDTH 470 0
DWIDTH 12 0
BBX 10 9 1 9
BITMAP
0c00
0c00
4c40
edc0
3200
0e00
1a00
7300
2180
ENDCHAR
STARTCHAR plus
ENCODING 43
SWIDTH 608 0
DWIDTH 15 0
BBX 16 15 0 0
BITMAP
0180
0180
0180
0180
0180
0180
ffff
ffff
0180
0180
0180
0180
0180
0180
0180
ENDCHAR
STARTCHAR comma
ENCODING 44
SWIDTH 265 0
DWIDTH 7 0
BBX 3 8 2 -5
BITMAP
e0
e0
e0
60
60
60
60
c0
ENDCHAR
STARTCHAR minus
ENCODING 45
SWIDTH 608 0
DWIDTH 15 0
BBX 14 2 1 6
BITMAP
fffc
fffc
ENDCHAR
STARTCHAR period
ENCODING 46
SWIDTH 265 0
DWIDTH 7 0
BBX 3 3 2 0
BITMAP
e0
e0
e0
ENDCHAR
STARTCHAR slash
ENCODING 47
SWIDTH 512 0
DWIDTH 13 0
BBX 13 22 0 -4
BITMAP
0018
0038
0030
0070
0060
00e0
00c0
0180
0180
0300
0300
0600
0600
0c00
0c00
1800
3800
3000
7000
6000
e000
c000
ENDCHAR
STARTCHAR zero
ENCODING 48
SWIDTH 608 0
DWIDTH 15 0
BBX 13 18 1 0
BITMAP
0f80
18c0
3060
7070
6030
e038
e038
e038
e038
e038
e038
e038
e038
6030
7070
3060
18c0
0f80
ENDCHAR
STARTCHAR one
ENCODING 49
SWIDTH 608 0
DWIDTH 15 0
BBX 9 18 3 0
BITMAP
fc00
1c00
1c00
1c00
1c00
1c00
1c00
1c00
1c00
1c00
1c00
1c00
1c00
1c00
1c00
1c00
1c00
ff80
ENDCHAR
STARTCHAR two
ENCODING 50
SWIDTH 608 0
DWIDTH 15 0
BBX 10 18 2 0
BITMAP
3e00
e380
c1c0
c1c0
c1c0
01c0
01c0
0380
0300
0600
0800
1000
2000
6000
4000
ffc0
ffc0
ffc0
ENDCHAR
STARTCHAR three
ENCODING 51
SWIDTH 608 0
DWIDTH 15 0
BBX 11 18 2 0
BITMAP
7f00
e1c0
c0e0
c0e0
00e0
00e0
00c0
0300
3e00
0380
01c0
00e0
00e0
00e0
c0e0
c1c0
e380
ff00
ENDCHAR
STARTCHAR four
ENCODING 52
SWIDTH 608 0
DWIDTH 15 0
BBX 13 18 1 0
BITMAP
0060
00e0
01e0
02e0
06e0
04e0
08e0
10e0
30e0
60e0
40e0
fff8
fff8
00e0
00e0
00e0
01e0
07f8
ENDCHAR
STARTCHAR five
ENCODING 53
SWIDTH 608 0
DWIDTH 15 0
BBX 9 18 3 0
BITMAP
ff80
ff80
ff80
8000
8000
8000
8000
f800
0e00
0700
0380
0380
0380
0380
c380
c700
c600
fc00
ENDCHAR
STARTCHAR six
ENCODING 54
SWIDTH 608 0
DWIDTH 15 0
BBX 12 18 2 0
BITMAP
0fc0
18e0
3060
7060
6000
e000
e000
ef80
f8e0
e060
e070
e070
e070
6070
6070
30e0
38c0
0f80
ENDCHAR
STARTCHAR seven
ENCODING 55
SWIDTH 608 0
DWIDTH 15 0
BBX 12 18 2 0
BITMAP
fff0
fff0
fff0
0020
0040
0080
0180
0100
0200
0600
0c00
0c00
1800
3800
3800
3000
7000
7000
ENDCHAR
STARTCHAR eight
ENCODING 56
SWIDTH 608 0
DWIDTH 15 0
BBX 12 18 2 0
BITMAP
0fc0
38e0
7070
7070
7070
7070
38e0
1e80
0f80
37c0
61e0
60f0
e070
e070
e070
7060
70c0
1f80
ENDCHAR
STARTCHAR nine
ENCODING 57
SWIDTH 608 0
DWIDTH 15 0
BBX 12 18 2 0
BITMAP
1f00
31c0
70c0
e060
e060
e070
e070
e070
6070
71f0
1f70
0070
0070
0060
60e0
60c0
7180
3f00
ENDCHAR
STARTCHAR colon
ENCODING 58
SWIDTH 265 0
DWIDTH 7 0
BBX 3 13 2 0
BITMAP
e0
e0
e0
00
00
00
00
00
00
00
e0
e0
e0
ENDCHAR
STARTCHAR semicolon
ENCODING 59
SWIDTH 265 0
DWIDTH 7 0
BBX 3 18 2 -5
BITMAP
e0
e0
e0
00
00
00
00
00
00
00
00
e0
e0
60
60
60
60
c0
ENDCHAR
STARTCHAR less
ENCODING 60
SWIDTH 608 0
DWIDTH 15 0
BBX 15 15 2 0
BITMAP
0006
001e
003c
00f0
03c0
0f00
3c00
f800
3c00
0f00
03c0
00f0
003c
001e
0006
ENDCHAR
STARTCHAR equal
ENCODING 61
SWIDTH 608 0
DWIDTH 15 0
BBX 14 6 1 4
BITMAP
fffc
fffc
0000
0000
fffc
fffc
ENDCHAR
STARTCHAR greater
ENCODING 62
SWIDTH 608 0
DWIDTH 15 0
BBX 15 15 1 0
BITMAP
c000
f000
7800
1e00
0780
01e0
0078
003e
0078
01e0
0780
1e00
7800
f000
c000
ENDCHAR
STARTCHAR question
ENCODING 63
SWIDTH 480 0
DWIDTH 12 0
BBX 10 18 1 0
BITMAP
7f00
e380
c1c0
c1c0
01c0
01c0
0180
0300
0600
0400
0c00
1c00
1c00
0000
0000
1c00
1c00
1c00
ENDCHAR
STARTCHAR at
ENCODING 64
SWIDTH 873 0
DWIDTH 22 0
BBX 20 18 1 0
BITMAP
00fe00
038180
0c0040
180020
307820
20fe10
418410
430410
820c10
860c10
861820
866c60
87ccc0
438700
400000
300000
1c0800
07f000
ENDCHAR
STARTCHAR A
ENCODING 65
SWIDTH 744 0
DWIDTH 19 0
BBX 19 18 0 0
BITMAP
004000
00e000
00e000
00f000
017000
017800
023800
023800
041c00
041c00
080e00
0ffe00
080f00
100700
100780
200380
6003c0
f80fe0
ENDCHAR
STARTCHAR B
ENCODING 66
SWIDTH 609 0
DWIDTH 15 0
BBX 13 18 1 0
BITMAP
ffc0
38e0
3870
3870
3870
3870
38e0
3980
3fc0
39e0
3870
3838
3838
3838
3838
3878
38f0
ffe0
ENDCHAR
STARTCHAR C
ENCODING 67
SWIDTH 695 0
DWIDTH 17 0
BBX 14 18 2 0
BITMAP
07f0
1c3c
380c
700c
700c
e000
e000
e000
e000
e000
e000
e000
7000
7000
7800
3e04
1ffc
07f0
ENDCHAR
STARTCHAR D
ENCODING 68
SWIDTH 768 0
DWIDTH 19 0
BBX 17 18 1 0
BITMAP
fff000
383c00
380e00
380700
380700
380380
380380
380380
380380
380380
380380
380380
380300
380700
380700
380e00
381c00
fff000
ENDCHAR
STARTCHAR E
ENCODING 69
SWIDTH 566 0
DWIDTH 14 0
BBX 13 18 1 0
BITMAP
fff0
3830
3830
3800
3800
3800
3840
3840
3fc0
3840
3840
3800
3800
3800
3800
3818
3818
fff8
ENDCHAR
STARTCHAR F
ENCODING 70
SWIDTH 548 0
DWIDTH 14 0
BBX 12 18 1 0
BITMAP
fff0
3830
3830
3800
3800
3800
3840
3840
3fc0
3840
3840
3800
3800
3800
3800
3800
3800
fe00
ENDCHAR
STARTCHAR G
ENCODING 71
SWIDTH 732 0
DWIDTH 18 0
BBX 17 18 1 0
BITMAP
03f800
1e0e00
380600
700600
700000
e00000
e00000
e00000
e00000
e00000
e03f80
e00e00
600e00
700e00
300e00
380e00
0e0e00
03fc00
ENDCHAR
STARTCHAR H
ENCODING 72
SWIDTH 771 0
DWIDTH 19 0
BBX 18 18 1 0
BITMAP
fe1fc0
380700
380700
380700
380700
380700
380700
380700
3fff00
380700
380700
380700
380700
380700
380700
380700
380700
fe1fc0
ENDCHAR
STARTCHAR I
ENCODING 73
SWIDTH 325 0
DWIDTH 8 0
BBX 7 18 1 0
BITMAP
fe
38
38
38
38
38
38
38
38
38
38
38
38
38
38
38
38
fe
ENDCHAR
STARTCHAR J
ENCODING 74
SWIDTH 422 0
DWIDTH 11 0
BBX 10 22 0 -4
BITMAP
1fc0
0700
0700
0700
0700
0700
0700
0700
0700
0700
0700
0700
0700
0700
0700
0700
0700
0700
c700
c600
ce00
f800
ENDCHAR
STARTCHAR K
ENCODING 75
SWIDTH 708 0
DWIDTH 18 0
BBX 17 18 1 0
BITMAP
fe3f00
380c00
381000
382000
384000
388000
390000
3a0000
3f0000
3f8000
3bc000
39e000
38f000
387800
387800
383c00
381e00
fe3f80
ENDCHAR
STARTCHAR L
ENCODING 76
SWIDTH 557 0
DWIDTH 14 0
BBX 13 18 1 0
BITMAP
fe00
3800
3800
3800
3800
3800
3800
3800
3800
3800
3800
3800
3800
3800
3818
3818
3838
fff8
ENDCHAR
STARTCHAR M
ENCODING 77
SWIDTH 860 0
DWIDTH 22 0
BBX 20 18 1 0
BITMAP
fc01f0
3c01c0
3c03c0
3e03c0
3e03c0
3705c0
3705c0
3789c0
3389c0
3389c0
31d1c0
31d1c0
31f1c0
30e1c0
30e1c0
30c1c0
3001c0
fc07f0
ENDCHAR
STARTCHAR N
ENCODING 78
SWIDTH 751 0
DWIDTH 19 0
BBX 17 18 1 0
BITMAP
f80f80
3c0200
3c0200
3e0200
3f0200
378200
338200
33c200
31e200
30e200
30f200
307a00
303e00
301e00
301e00
300e00
300600
fc0600
ENDCHAR
STARTCHAR O
ENCODING 79
SWIDTH 777 0
DWIDTH 19 0
BBX 17 18 1 0
BITMAP
07f000
1c1c00
380e00
700700
700700
600300
e00380
e00380
e00380
e00380
e00380
e00380
600300
700700
700700
380e00
1c1c00
07f000
ENDCHAR
STARTCHAR P
ENCODING 80
SWIDTH 573 0
DWIDTH 14 0
BBX 13 18 1 0
BITMAP
ffc0
3870
3830
3838
3838
3838
3838
3838
3870
38e0
3fc0
3800
3800
3800
3800
3800
3800
ff00
ENDCHAR
STARTCHAR Q
ENCODING 81
SWIDTH 778 0
DWIDTH 19 0
BBX 20 22 1 -4
BITMAP
07f000
1c1c00
380e00
700700
700700
600300
e00380
e00380
e00380
e00380
e00380
e00380
e00380
700700
700700
380e00
1c1c00
07f000
001000
000f00
0003f0
0000c0
ENDCHAR
STARTCHAR R
ENCODING 82
SWIDTH 679 0
DWIDTH 17 0
BBX 16 18 1 0
BITMAP
ffc0
3870
3838
3838
3838
3838
3838
3830
3860
3f80
39c0
39e0
38e0
3870
3878
383c
383c
fe1f
ENDCHAR
STARTCHAR S
ENCODING 83
SWIDTH 542 0
DWIDTH 14 0
BBX 11 18 1 0
BITMAP
1f80
71c0
60c0
e0c0
e000
f000
f800
7c00
3f00
0f80
03c0
01e0
00e0
00e0
c0e0
c0c0
e180
7f00
ENDCHAR
STARTCHAR T
ENCODING 84
SWIDTH 663 0
DWIDTH 17 0
BBX 15 18 1 0
BITMAP
fffe
c386
c386
0380
0380
0380
0380
0380
0380
0380
0380
0380
0380
0380
0380
0380
03c0
1ff0
ENDCHAR
STARTCHAR U
ENCODING 85
SWIDTH 719 0
DWIDTH 18 0
BBX 17 18 0 0
BITMAP
fe1f80
380600
380600
380600
380600
380600
380600
380600
380600
380600
380600
380600
380600
380600
380400
1c0c00
0e1800
07f000
ENDCHAR
STARTCHAR V
ENCODING 86
SWIDTH 699 0
DWIDTH 17 0
BBX 17 18 0 0
BITMAP
fc0f80
700300
380200
380200
1c0400
1c0400
1e0400
0e0800
0e0800
071000
071000
079000
03a000
03a000
01e000
01c000
01c000
008000
ENDCHAR
STARTCHAR W
ENCODING 87
SWIDTH 925 0
DWIDTH 23 0
BBX 23 18 0 0
BITMAP
fc183e
70180c
381808
383c08
383c10
1c3c10
1c7e10
1c4e20
1c4e20
0e4e20
0e8740
0e8740
0e8740
0703c0
070380
070380
060180
020100
ENDCHAR
STARTCHAR X
ENCODING 88
SWIDTH 657 0
DWIDTH 16 0
BBX 16 18 0 0
BITMAP
fe1f
3804
3c08
1e08
0e10
0f20
0760
07c0
03c0
03c0
02e0
04f0
0c70
0878
1038
301c
601e
f87f
ENDCHAR
STARTCHAR Y
ENCODING 89
SWIDTH 678 0
DWIDTH 17 0
BBX 17 18 0 0
BITMAP
fe0f80
780300
3c0600
1c0400
1e0800
0f0800
071000
07b000
03a000
03c000
01c000
01c000
01c000
01c000
01c000
01c000
01c000
07f000
ENDCHAR
STARTCHAR Z
ENCODING 90
SWIDTH 633 0
DWIDTH 16 0
BBX 12 18 2 0
BITMAP
fff0
e0f0
c0e0
c1e0
01c0
0380
0780
0700
0f00
0e00
1e00
1c00
3c00
3800
7800
7030
e030
fff0
ENDCHAR
STARTCHAR bracketleft
ENCODING 91
SWIDTH 316 0
DWIDTH 8 0
BBX 6 22 2 -4
BITMAP
fc
e0
e0
e0
e0
e0
e0
e0
e0
e0
e0
e0
e0
e0
e0
e0
e0
e0
e0
e0
e0
fc
ENDCHAR
STARTCHAR backslash
ENCODING 92
SWIDTH 512 0
DWIDTH 13 0
BBX 13 22 0 -4
BITMAP
c000
e000
6000
7000
3000
3800
1800
0c00
0c00
0600
0600
0300
0300
0180
0180
00c0
00e0
0060
0070
0030
0038
0018
ENDCHAR
STARTCHAR bracketright
ENCODING 93
SWIDTH 316 0
DWIDTH 8 0
BBX 6 22 0 -4
BITMAP
fc
1c
1c
1c
1c
1c
1c
1c
1c
1c
1c
1c
1c
1c
1c
1c
1c
1c
1c
1c
1c
fc
ENDCHAR
STARTCHAR asciicircum
ENCODING 94
SWIDTH 608 0
DWIDTH 15 0
BBX 15 16 0 3
BITMAP
0100
0100
0380
0380
07c0
06c0
0ee0
0c60
1c70
1830
3838
3018
701c
600c
e00e
c006
ENDCHAR
STARTCHAR underscore
ENCODING 95
SWIDTH 500 0
DWIDTH 12 0
BBX 10 2 1 -2
BITMAP
ffc0
ffc0
ENDCHAR
STARTCHAR grave
ENCODING 96
SWIDTH 602 0
DWIDTH 15 0
BBX 5 4 5 14
BITMAP
e0
70
30
18
ENDCHAR
STARTCHAR a
ENCODING 97
SWIDTH 543 0
DWIDTH 14 0
BBX 12 13 1 0
BITMAP
3f00
7380
61c0
01c0
01c0
1fc0
71c0
e1c0
e1c0
e1c0
f1c0
7ed0
3c70
ENDCHAR
STARTCHAR b
ENCODING 98
SWIDTH 611 0
DWIDTH 15 0
BBX 14 18 0 0
BITMAP
f800
3800
3800
3800
3800
39e0
3bf8
3c38
383c
381c
381c
381c
381c
381c
3818
3c38
3bf0
31e0
ENDCHAR
STARTCHAR c
ENCODING 99
SWIDTH 509 0
DWIDTH 13 0
BBX 10 13 1 0
BITMAP
0fc0
38c0
70c0
60c0
e000
e000
e000
e000
e000
7000
7840
3fc0
0f80
ENDCHAR
STARTCHAR d
ENCODING 100
SWIDTH 642 0
DWIDTH 16 0
BBX 14 18 1 0
BITMAP
01f0
0070
0070
0070
0070
1e70
3f70
70f0
6070
e070
e070
e070
e070
e070
f070
70f0
7f78
3c7c
ENDCHAR
STARTCHAR e
ENCODING 101
SWIDTH 530 0
DWIDTH 13 0
BBX 11 13 1 0
BITMAP
1f00
31c0
70c0
60e0
e0e0
ffe0
e000
e000
e000
7000
7820
3fe0
0f80
ENDCHAR
STARTCHAR f
ENCODING 102
SWIDTH 404 0
DWIDTH 10 0
BBX 9 19 1 0
BITMAP
0f00
1980
3980
3980
3800
3800
fe00
3800
3800
3800
3800
3800
3800
3800
3800
3800
3800
3800
fc00
ENDCHAR
STARTCHAR g
ENCODING 103
SWIDTH 571 0
DWIDTH 14 0
BBX 13 18 1 -5
BITMAP
1ff8
39c0
70e0
70e0
70e0
70e0
30e0
39c0
0f80
3000
7000
7fe0
1ff0
6070
e070
e070
70e0
3f80
ENDCHAR
STARTCHAR h
ENCODING 104
SWIDTH 633 0
DWIDTH 16 0
BBX 15 18 1 0
BITMAP
f800
3800
3800
3800
3800
38e0
3bf0
3e38
3838
3838
3838
3838
3838
3838
3838
3838
3838
fefe
ENDCHAR
STARTCHAR i
ENCODING 105
SWIDTH 307 0
DWIDTH 8 0
BBX 7 18 0 0
BITMAP
38
38
38
00
00
f8
38
38
38
38
38
38
38
38
38
38
38
fe
ENDCHAR
STARTCHAR j
ENCODING 106
SWIDTH 346 0
DWIDTH 9 0
BBX 7 23 0 -5
BITMAP
0e
0e
0e
00
00
1e
0e
0e
0e
0e
0e
0e
0e
0e
0e
0e
0e
0e
0e
ce
ce
cc
f8
ENDCHAR
STARTCHAR k
ENCODING 107
SWIDTH 599 0
DWIDTH 15 0
BBX 15 18 0 0
BITMAP
f800
3800
3800
3800
3800
387c
3830
3860
38c0
3980
3b00
3f80
3bc0
39e0
38f0
38f8
387c
fe3e
ENDCHAR
STARTCHAR l
ENCODING 108
SWIDTH 313 0
DWIDTH 8 0
BBX 7 18 0 0
BITMAP
f8
38
38
38
38
38
38
38
38
38
38
38
38
38
38
38
38
fe
ENDCHAR
STARTCHAR m
ENCODING 109
SWIDTH 946 0
DWIDTH 24 0
BBX 23 13 1 0
BITMAP
f9f1e0
7bf3f0
3e7e38
383838
383838
383838
383838
383838
383838
383838
383838
383838
fefefe
ENDCHAR
STARTCHAR n
ENCODING 110
SWIDTH 633 0
DWIDTH 16 0
BBX 15 13 1 0
BITMAP
f8e0
7bf0
3e38
3838
3838
3838
3838
3838
3838
3838
3838
3838
fefe
ENDCHAR
STARTCHAR o
ENCODING 111
SWIDTH 602 0
DWIDTH 15 0
BBX 13 13 1 0
BITMAP
0f80
38e0
7070
7070
e038
e038
e038
e038
e038
6030
7070
38e0
0f80
ENDCHAR
STARTCHAR p
ENCODING 112
SWIDTH 642 0
DWIDTH 16 0
BBX 14 18 1 -5
BITMAP
f8e0
7bf8
3c38
383c
381c
381c
381c
381c
381c
3818
3c38
3bf0
39e0
3800
3800
3800
3800
fe00
ENDCHAR
STARTCHAR q
ENCODING 113
SWIDTH 617 0
DWIDTH 15 0
BBX 14 18 1 -5
BITMAP
1e70
3f70
70f0
6070
e070
e070
e070
e070
e070
f070
70f0
7f70
3c70
0070
0070
0070
0070
01fc
ENDCHAR
STARTCHAR r
ENCODING 114
SWIDTH 440 0
DWIDTH 11 0
BBX 10 13 0 0
BITMAP
f9c0
3bc0
3cc0
38c0
3800
3800
3800
3800
3800
3800
3800
3800
ff00
ENDCHAR
STARTCHAR s
ENCODING 115
SWIDTH 504 0
DWIDTH 13 0
BBX 10 13 1 0
BITMAP
3f00
7380
e180
e180
f000
fe00
7f80
0fc0
c3c0
c1c0
c1c0
e380
3f00
ENDCHAR
STARTCHAR t
ENCODING 116
SWIDTH 392 0
DWIDTH 10 0
BBX 9 17 1 0
BITMAP
1800
3800
3800
3800
ff80
3800
3800
3800
3800
3800
3800
3800
3800
3800
3800
1c00
0f80
ENDCHAR
STARTCHAR u
ENCODING 117
SWIDTH 633 0
DWIDTH 16 0
BBX 15 13 0 0
BITMAP
f8f8
3838
3838
3838
3838
3838
3838
3838
3838
3838
38f8
1fbc
0e3e
ENDCHAR
STARTCHAR v
ENCODING 118
SWIDTH 545 0
DWIDTH 14 0
BBX 14 13 0 0
BITMAP
fc3c
7008
7818
3810
3c30
1c20
1e60
0e40
0ec0
0780
0780
0300
0300
ENDCHAR
STARTCHAR w
ENCODING 119
SWIDTH 795 0
DWIDTH 20 0
BBX 20 13 0 0
BITMAP
fc30f0
703020
707060
787840
38b840
38bc80
3d9c80
1d1c80
1d0f00
0e0f00
0e0f00
0e0600
040600
ENDCHAR
STARTCHAR x
ENCODING 120
SWIDTH 557 0
DWIDTH 14 0
BBX 14 13 0 0
BITMAP
fc7c
7810
3c20
1c60
1ec0
0f80
0780
07c0
09e0
10e0
30f0
6078
f0fc
ENDCHAR
STARTCHAR y
ENCODING 121
SWIDTH 551 0
DWIDTH 14 0
BBX 14 18 0 -5
BITMAP
fc3c
7008
7818
3810
3c30
1c20
1e20
0e40
0e40
0780
0780
0700
0300
0200
0600
0c00
1c00
3c00
ENDCHAR
STARTCHAR z
ENCODING 122
SWIDTH 595 0
DWIDTH 15 0
BBX 11 13 2 0
BITMAP
ffe0
c1c0
c3c0
0780
0700
0f00
1e00
1c00
3c00
3800
7060
f060
ffe0
ENDCHAR
STARTCHAR braceleft
ENCODING 123
SWIDTH 343 0
DWIDTH 9 0
BBX 7 22 0 -4
BITMAP
0e
18
30
30
30
38
18
18
18
10
20
e0
30
18
18
18
38
38
30
30
18
0e
ENDCHAR
STARTCHAR bar
ENCODING 124
SWIDTH 241 0
DWIDTH 6 0
BBX 2 22 2 -4
BITMAP
c0
c0
c0
c0
c0
c0
c0
c0
c0
c0
c0
c0
c0
c0
c0
c0
c0
c0
c0
c0
c0
c0
ENDCHAR
STARTCHAR braceright
ENCODING 125
SWIDTH 343 0
DWIDTH 9 0
BBX 7 22 1 -4
BITMAP
e0
30
18
18
18
38
38
30
30
10
08
0e
18
30
30
30
38
18
18
18
30
e0
ENDCHAR
STARTCHAR asciitilde
ENCODING 126
SWIDTH 608 0
DWIDTH 15 0
BBX 15 6 0 4
BITMAP
3800
7e02
4702
83c6
80fc
8078
ENDCHAR
STARTCHAR nobreakspace
ENCODING 160
SWIDTH 333 0
DWIDTH 8 0
BBX 1 1 0 0
BITMAP
00
ENDCHAR
STARTCHAR Aogonek
ENCODING 161
SWIDTH 744 0
DWIDTH 19 0
BBX 19 22 0 -4
BITMAP
004000
00e000
00e000
00f000
017000
017800
023800
023800
041c00
041c00
080e00
0ffe00
080f00
100700
100780
200380
6003c0
f80fe0
006000
00c000
00c000
007000
ENDCHAR
STARTCHAR breve
ENCODING 162
SWIDTH 602 0
DWIDTH 15 0
BBX 8 4 4 14
BITMAP
81
c3
7e
3c
ENDCHAR
STARTCHAR Lstroke
ENCODING 163
SWIDTH 557 0
DWIDTH 14 0
BBX 14 18 0 0
BITMAP
ff00
3c00
1c00
1c00
1c00
1c00
1c80
1f80
1e00
3c00
dc00
9c00
1c00
1c00
1c00
1c0c
3c0c
fffc
ENDCHAR
STARTCHAR currency
ENCODING 164
SWIDTH 608 0
DWIDTH 15 0
BBX 15 14 0 2
BITMAP
8002
67cc
3ff8
0c60
1830
3018
3018
3018
3018
1830
0c60
3ff8
67cc
c006
ENDCHAR
STARTCHAR Lcaron
ENCODING 165
SWIDTH 557 0
DWIDTH 14 0
BBX 13 20 1 0
BITMAP
00e0
00e0
fe60
3860
3860
38c0
3800
3800
3800
3800
3800
3800
3800
3800
3800
3800
3818
3818
3838
fff8
ENDCHAR
STARTCHAR Sacute
ENCODING 166
SWIDTH 542 0
DWIDTH 14 0
BBX 11 23 1 0
BITMAP
01c0
0380
0300
0600
0000
1f80
71c0
60c0
e0c0
e000
f000
f800
7c00
3f00
0f80
03c0
01e0
00e0
00e0
c0e0
c0c0
e180
7f00
ENDCHAR
STARTCHAR section
ENCODING 167
SWIDTH 608 0
DWIDTH 15 0
BBX 11 23 2 -5
BITMAP
1f80
71c0
e0c0
e0c0
e000
e000
7800
3e00
3f80
6780
e3c0
e0c0
f0c0
7cc0
7e80
1f00
07c0
01e0
00e0
c0e0
c0e0
e1c0
7f00
ENDCHAR
STARTCHAR diaeresis
ENCODING 168
SWIDTH 602 0
DWIDTH 15 0
BBX 7 3 4 15
BITMAP
c6
c6
c6
ENDCHAR
STARTCHAR Scaron
ENCODING 169
SWIDTH 542 0
DWIDTH 14 0
BBX 11 23 1 0
BITMAP
30c0
1980
0f00
0f00
0000
1f80
71c0
60c0
e0c0
e000
f000
f800
7c00
3f00
0f80
03c0
01e0
00e0
00e0
c0e0
c0c0
e180
7f00
ENDCHAR
STARTCHAR Scedilla
ENCODING 170
SWIDTH 542 0
DWIDTH 14 0
BBX 11 23 1 -5
BITMAP
1f80
71c0
60c0
e0c0
e000
f000
f800
7c00
3f00
0f80
03c0
01e0
00e0
00e0
c0e0
c0c0
e180
7f00
0600
0400
0300
0300
0e00
ENDCHAR
STARTCHAR Tcaron
ENCODING 171
SWIDTH 663 0
DWIDTH 17 0
BBX 15 23 1 0
BITMAP
0c30
0660
03c0
03c0
0000
fffe
c386
c386
0380
0380
0380
0380
0380
0380
0380
0380
0380
0380
0380
0380
0380
03c0
1ff0
ENDCHAR
STARTCHAR Zacute
ENCODING 172
SWIDTH 633 0
DWIDTH 16 0
BBX 12 23 2 0
BITMAP
01c0
0380
0300
0600
0000
fff0
e0f0
c0e0
c1e0
01c0
0380
0780
0700
0f00
0e00
1e00
1c00
3c00
3800
7800
7030
e030
fff0
ENDCHAR
STARTCHAR hyphen
ENCODING 173
SWIDTH 325 0
DWIDTH 8 0
BBX 6 2 1 7
BITMAP
fc
fc
ENDCHAR
STARTCHAR Zcaron
ENCODING 174
SWIDTH 633 0
DWIDTH 16 0
BBX 12 23 2 0
BITMAP
30c0
1980
0f00
0f00
0000
fff0
e0f0
c0e0
c1e0
01c0
0380
0780
0700
0f00
0e00
1e00
1c00
3c00
3800
7800
7030
e030
fff0
ENDCHAR
STARTCHAR Zabovedot
ENCODING 175
SWIDTH 633 0
DWIDTH 16 0
BBX 12 22 2 0
BITMAP
0600
0600
0600
0000
fff0
e0f0
c0e0
c1e0
01c0
0380
0780
0700
0f00
0e00
1e00
1c00
3c00
3800
7800
7030
e030
fff0
ENDCHAR
STARTCHAR degree
ENCODING 176
SWIDTH 259 0
DWIDTH 6 0
BBX 4 4 1 14
BITMAP
60
90
90
60
ENDCHAR
STARTCHAR aogonek
ENCODING 177
SWIDTH 543 0
DWIDTH 14 0
BBX 12 17 1 -4
BITMAP
3f00
7380
61c0
01c0
01c0
1fc0
71c0
e1c0
e1c0
e1c0
f1c0
7ed0
3c70
0600
0c00
0c00
0700
ENDCHAR
STARTCHAR ogonek
ENCODING 178
SWIDTH 602 0
DWIDTH 15 0
BBX 4 4 6 -4
BITMAP
60
c0
c0
70
ENDCHAR
STARTCHAR lstroke
ENCODING 179
SWIDTH 313 0
DWIDTH 8 0
BBX 9 18 0 0
BITMAP
7c00
1c00
1c00
1c00
1c00
1c00
1c80
1f80
1e00
7c00
dc00
1c00
1c00
1c00
1c00
1c00
1c00
7f00
ENDCHAR
STARTCHAR acute
ENCODING 180
SWIDTH 602 0
DWIDTH 15 0
BBX 5 4 5 14
BITMAP
38
70
60
c0
ENDCHAR
STARTCHAR lcaron
ENCODING 181
SWIDTH 400 0
DWIDTH 10 0
BBX 9 20 0 0
BITMAP
0380
0380
f980
3980
3980
3b00
3800
3800
3800
3800
3800
3800
3800
3800
3800
3800
3800
3800
3800
fe00
ENDCHAR
STARTCHAR sacute
ENCODING 182
SWIDTH 504 0
DWIDTH 13 0
BBX 10 18 1 0
BITMAP
0380
0700
0600
0c00
0000
3f00
7380
e180
e180
f000
fe00
7f80
0fc0
c3c0
c1c0
c1c0
e380
3f00
ENDCHAR
STARTCHAR caron
ENCODING 183
SWIDTH 602 0
DWIDTH 15 0
BBX 8 4 4 14
BITMAP
c3
66
3c
3c
ENDCHAR
STARTCHAR cedilla
ENCODING 184
SWIDTH 602 0
DWIDTH 15 0
BBX 4 5 6 -5
BITMAP
60
40
30
30
e0
ENDCHAR
STARTCHAR scaron
ENCODING 185
SWIDTH 504 0
DWIDTH 13 0
BBX 10 18 1 0
BITMAP
6180
3300
1e00
1e00
0000
3f00
7380
e180
e180
f000
fe00
7f80
0fc0
c3c0
c1c0
c1c0
e380
3f00
ENDCHAR
STARTCHAR scedilla
ENCODING 186
SWIDTH 504 0
DWIDTH 13 0
BBX 10 18 1 -5
BITMAP
3f00
7380
e180
e180
f000
fe00
7f80
0fc0
c3c0
c1c0
c1c0
e380
3f00
0c00
0800
0600
0600
1c00
ENDCHAR
STARTCHAR tcaron
ENCODING 187
SWIDTH 392 0
DWIDTH 10 0
BBX 9 20 1 0
BITMAP
0380
0380
0180
1980
3980
3b00
3800
ff80
3800
3800
3800
3800
3800
3800
3800
3800
3800
3800
1c00
0f80
ENDCHAR
STARTCHAR zacute
ENCODING 188
SWIDTH 595 0
DWIDTH 15 0
BBX 11 18 2 0
BITMAP
01c0
0380
0300
0600
0000
ffe0
c1c0
c3c0
0780
0700
0f00
1e00
1c00
3c00
3800
7060
f060
ffe0
ENDCHAR
STARTCHAR doubleacute
ENCODING 189
SWIDTH 602 0
DWIDTH 15 0
BBX 7 4 5 14
BITMAP
36
2c
48
90
ENDCHAR
STARTCHAR zcaron
ENCODING 190
SWIDTH 595 0
DWIDTH 15 0
BBX 11 18 2 0
BITMAP
30c0
1980
0f00
0f00
0000
ffe0
c1c0
c3c0
0780
0700
0f00
1e00
1c00
3c00
3800
7060
f060
ffe0
ENDCHAR
STARTCHAR zabovedot
ENCODING 191
SWIDTH 595 0
DWIDTH 15 0
BBX 11 17 2 0
BITMAP
0600
0600
0600
0000
ffe0
c1c0
c3c0
0780
0700
0f00
1e00
1c00
3c00
3800
7060
f060
ffe0
ENDCHAR
STARTCHAR Racute
ENCODING 192
SWIDTH 679 0
DWIDTH 17 0
BBX 16 23 1 0
BITMAP
00e0
01c0
0180
0300
0000
ffc0
3870
3838
3838
3838
3838
3838
3830
3860
3f80
39c0
39e0
38e0
3870
3878
383c
383c
fe1f
ENDCHAR
STARTCHAR Aacute
ENCODING 193
SWIDTH 744 0
DWIDTH 19 0
BBX 19 23 0 0
BITMAP
007000
00e000
00c000
018000
000000
004000
00e000
00e000
00f000
017000
017800
023800
023800
041c00
041c00
080e00
0ffe00
080f00
100700
100780
200380
6003c0
f80fe0
ENDCHAR
STARTCHAR Acircumflex
ENCODING 194
SWIDTH 744 0
DWIDTH 19 0
BBX 19 23 0 0
BITMAP
01e000
01e000
033000
061800
000000
004000
00e000
00e000
00f000
017000
017800
023800
023800
041c00
041c00
080e00
0ffe00
080f00
100700
100780
200380
6003c0
f80fe0
ENDCHAR
STARTCHAR Abreve
ENCODING 195
SWIDTH 744 0
DWIDTH 19 0
BBX 19 23 0 0
BITMAP
020400
030c00
01f800
00f000
000000
004000
00e000
00e000
00f000
017000
017800
023800
023800
041c00
041c00
080e00
0ffe00
080f00
100700
100780
200380
6003c0
f80fe0
ENDCHAR
STARTCHAR Adiaeresis
ENCODING 196
SWIDTH 744 0
DWIDTH 19 0
BBX 19 22 0 0
BITMAP
031800
031800
031800
000000
004000
00e000
00e000
00f000
017000
017800
023800
023800
041c00
041c00
080e00
0ffe00
080f00
100700
100780
200380
6003c0
f80fe0
ENDCHAR
STARTCHAR Lacute
ENCODING 197
SWIDTH 557 0
DWIDTH 14 0
BBX 13 23 1 0
BITMAP
0700
0e00
0c00
1800
0000
fe00
3800
3800
3800
3800
3800
3800
3800
3800
3800
3800
3800
3800
3800
3818
3818
3838
fff8
ENDCHAR
STARTCHAR Cacute
ENCODING 198
SWIDTH 695 0
DWIDTH 17 0
BBX 14 23 2 0
BITMAP
0070
00e0
00c0
0180
0000
07f0
1c3c
380c
700c
700c
e000
e000
e000
e000
e000
e000
e000
7000
7000
7800
3e04
1ffc
07f0
ENDCHAR
STARTCHAR Ccedilla
ENCODING 199
SWIDTH 695 0
DWIDTH 17 0
BBX 14 23 2 -5
BITMAP
07f0
1c3c
380c
700c
700c
e000
e000
e000
e000
e000
e000
e000
7000
7000
7800
3e04
1ffc
07f0
0200
0200
0180
0180
0700
ENDCHAR
STARTCHAR Ccaron
ENCODING 200
SWIDTH 695 0
DWIDTH 17 0
BBX 14 23 2 0
BITMAP
0c30
0660
03c0
03c0
0000
07f0
1c3c
380c
700c
700c
e000
e000
e000
e000
e000
e000
e000
7000
7000
7800
3e04
1ffc
07f0
ENDCHAR
STARTCHAR Eacute
ENCODING 201
SWIDTH 566 0
DWIDTH 14 0
BBX 13 23 1 0
BITMAP
0380
0700
0600
0c00
0000
fff0
3830
3830
3800
3800
3800
3840
3840
3fc0
3840
3840
3800
3800
3800
3800
3818
3818
fff8
ENDCHAR
STARTCHAR Eogonek
ENCODING 202
SWIDTH 566 0
DWIDTH 14 0
BBX 13 22 1 -4
BITMAP
fff0
3830
3830
3800
3800
3800
3840
3840
3fc0
3840
3840
3800
3800
3800
3800
3818
3818
fff8
0300
0600
0600
0380
ENDCHAR
STARTCHAR Ediaeresis
ENCODING 203
SWIDTH 566 0
DWIDTH 14 0
BBX 13 22 1 0
BITMAP
18c0
18c0
18c0
0000
fff0
3830
3830
3800
3800
3800
3840
3840
3fc0
3840
3840
3800
3800
3800
3800
3818
3818
fff8
ENDCHAR
STARTCHAR Ecaron
ENCODING 204
SWIDTH 566 0
DWIDTH 14 0
BBX 13 23 1 0
BITMAP
30c0
1980
0f00
0f00
0000
fff0
3830
3830
3800
3800
3800
3840
3840
3fc0
3840
3840
3800
3800
3800
3800
3818
3818
fff8
ENDCHAR
STARTCHAR Iacute
ENCODING 205
SWIDTH 325 0
DWIDTH 8 0
BBX 7 23 1 0
BITMAP
1c
38
30
60
00
fe
38
38
38
38
38
38
38
38
38
38
38
38
38
38
38
38
fe
ENDCHAR
STARTCHAR Icircumflex
ENCODING 206
SWIDTH 325 0
DWIDTH 8 0
BBX 8 23 2 0
BITMAP
3c
3c
66
c3
00
7f
1c
1c
1c
1c
1c
1c
1c
1c
1c
1c
1c
1c
1c
1c
1c
1c
7f
ENDCHAR
STARTCHAR Dcaron
ENCODING 207
SWIDTH 768 0
DWIDTH 19 0
BBX 17 23 1 0
BITMAP
0c3000
066000
03c000
03c000
000000
fff000
383c00
380e00
380700
380700
380380
380380
380380
380380
380380
380380
380380
380300
380700
380700
380e00
381c00
fff000
ENDCHAR
STARTCHAR Dstroke
ENCODING 208
SWIDTH 768 0
DWIDTH 19 0
BBX 18 18 0 0
BITMAP
fff800
1c1e00
1c0700
1c0380
1c0380
1c01c0
1c01c0
1c01c0
ffc1c0
1c01c0
1c01c0
1c01c0
1c0180
1c0380
1c0300
1c0700
3e0c00
fff000
ENDCHAR
STARTCHAR Nacute
ENCODING 209
SWIDTH 751 0
DWIDTH 19 0
BBX 17 23 1 0
BITMAP
003800
007000
006000
00c000
000000
f80f80
3c0200
3c0200
3e0200
3f0200
378200
338200
33c200
31e200
30e200
30f200
307a00
303e00
301e00
301e00
300e00
300600
fc0600
ENDCHAR
STARTCHAR Ncaron
ENCODING 210
SWIDTH 751 0
DWIDTH 19 0
BBX 17 23 1 0
BITMAP
061800
033000
01e000
01e000
000000
f80f80
3c0200
3c0200
3e0200
3f0200
378200
338200
33c200
31e200
30e200
30f200
307a00
303e00
301e00
301e00
300e00
300600
fc0600
ENDCHAR
STARTCHAR Oacute
ENCODING 211
SWIDTH 777 0
DWIDTH 19 0
BBX 17 23 1 0
BITMAP
00e000
01c000
018000
030000
000000
07f000
1c1c00
380e00
700700
700700
600300
e00380
e00380
e00380
e00380
e00380
e00380
600300
700700
700700
380e00
1c1c00
07f000
ENDCHAR
STARTCHAR Ocircumflex
ENCODING 212
SWIDTH 777 0
DWIDTH 19 0
BBX 17 23 1 0
BITMAP
03c000
03c000
066000
0c3000
000000
07f000
1c1c00
380e00
700700
700700
600300
e00380
e00380
e00380
e00380
e00380
e00380
600300
700700
700700
380e00
1c1c00
07f000
ENDCHAR
STARTCHAR Odoubleacute
ENCODING 213
SWIDTH 777 0
DWIDTH 19 0
BBX 17 23 1 0
BITMAP
006c00
005800
009000
012000
000000
07f000
1c1c00
380e00
700700
700700
600300
e00380
e00380
e00380
e00380
e00380
e00380
600300
700700
700700
380e00
1c1c00
07f000
ENDCHAR
STARTCHAR Odiaeresis
ENCODING 214
SWIDTH 777 0
DWIDTH 19 0
BBX 17 22 1 0
BITMAP
063000
063000
063000
000000
07f000
1c1c00
380e00
700700
700700
600300
e00380
e00380
e00380
e00380
e00380
e00380
600300
700700
700700
380e00
1c1c00
07f000
ENDCHAR
STARTCHAR multiply
ENCODING 215
SWIDTH 608 0
DWIDTH 15 0
BBX 14 15 1 0
BITMAP
c00c
e01c
7038
3870
1860
0cc0
0780
0300
0780
0fc0
1ce0
3870
7038
e01c
c00c
ENDCHAR
STARTCHAR Rcaron
ENCODING 216
SWIDTH 679 0
DWIDTH 17 0
BBX 16 23 1 0
BITMAP
1860
0cc0
0780
0780
0000
ffc0
3870
3838
3838
3838
3838
3838
3830
3860
3f80
39c0
39e0
38e0
3870
3878
383c
383c
fe1f
ENDCHAR
STARTCHAR Uring
ENCODING 217
SWIDTH 719 0
DWIDTH 18 0
BBX 17 23 0 0
BITMAP
00c000
012000
012000
00c000
000000
fe1f80
380600
380600
380600
380600
380600
380600
380600
380600
380600
380600
380600
380600
380600
380400
1c0c00
0e1800
07f000
ENDCHAR
STARTCHAR Uacute
ENCODING 218
SWIDTH 719 0
DWIDTH 18 0
BBX 17 23 0 0
BITMAP
00e000
01c000
018000
030000
000000
fe1f80
380600
380600
380600
380600
380600
380600
380600
380600
380600
380600
380600
380600
380600
380400
1c0c00
0e1800
07f000
ENDCHAR
STARTCHAR Udoubleacute
ENCODING 219
SWIDTH 719 0
DWIDTH 18 0
BBX 17 23 0 0
BITMAP
006c00
005800
009000
012000
000000
fe1f80
380600
380600
380600
380600
380600
380600
380600
380600
380600
380600
380600
380600
380600
380400
1c0c00
0e1800
07f000
ENDCHAR
STARTCHAR Udiaeresis
ENCODING 220
SWIDTH 719 0
DWIDTH 18 0
BBX 17 22 0 0
BITMAP
063000
063000
063000
000000
fe1f80
380600
380600
380600
380600
380600
380600
380600
380600
380600
380600
380600
380600
380600
380400
1c0c00
0e1800
07f000
ENDCHAR
STARTCHAR Yacute
ENCODING 221
SWIDTH 678 0
DWIDTH 17 0
BBX 17 23 0 0
BITMAP
00e000
01c000
018000
030000
000000
fe0f80
780300
3c0600
1c0400
1e0800
0f0800
071000
07b000
03a000
03c000
01c000
01c000
01c000
01c000
01c000
01c000
01c000
07f000
ENDCHAR
STARTCHAR Tcedilla
ENCODING 222
SWIDTH 663 0
DWIDTH 17 0
BBX 15 23 1 -5
BITMAP
fffe
c386
c386
0380
0380
0380
0380
0380
0380
0380
0380
0380
0380
0380
0380
0380
03c0
1ff0
0180
0100
00c0
00c0
0380
ENDCHAR
STARTCHAR ssharp
ENCODING 223
SWIDTH 614 0
DWIDTH 15 0
BBX 13 19 1 0
BITMAP
0f80
19c0
38e0
38e0
38e0
38c0
3980
3b00
3b00
3b80
3bc0
39e0
38f0
3878
3838
3818
3b18
3b30
fbe0
ENDCHAR
STARTCHAR racute
ENCODING 224
SWIDTH 440 0
DWIDTH 11 0
BBX 10 18 0 0
BITMAP
0380
0700
0600
0c00
0000
f9c0
3bc0
3cc0
38c0
3800
3800
3800
3800
3800
3800
3800
3800
ff00
ENDCHAR
STARTCHAR aacute
ENCODING 225
SWIDTH 543 0
DWIDTH 14 0
BBX 12 18 1 0
BITMAP
0380
0700
0600
0c00
0000
3f00
7380
61c0
01c0
01c0
1fc0
71c0
e1c0
e1c0
e1c0
f1c0
7ed0
3c70
ENDCHAR
STARTCHAR acircumflex
ENCODING 226
SWIDTH 543 0
DWIDTH 14 0
BBX 12 18 1 0
BITMAP
0f00
0f00
1980
30c0
0000
3f00
7380
61c0
01c0
01c0
1fc0
71c0
e1c0
e1c0
e1c0
f1c0
7ed0
3c70
ENDCHAR
STARTCHAR abreve
ENCODING 227
SWIDTH 543 0
DWIDTH 14 0
BBX 12 18 1 0
BITMAP
2040
30c0
1f80
0f00
0000
3f00
7380
61c0
01c0
01c0
1fc0
71c0
e1c0
e1c0
e1c0
f1c0
7ed0
3c70
ENDCHAR
STARTCHAR adiaeresis
ENCODING 228
SWIDTH 543 0
DWIDTH 14 0
BBX 12 17 1 0
BITMAP
3180
3180
3180
0000
3f00
7380
61c0
01c0
01c0
1fc0
71c0
e1c0
e1c0
e1c0
f1c0
7ed0
3c70
ENDCHAR
STARTCHAR lacute
ENCODING 229
SWIDTH 313 0
DWIDTH 8 0
BBX 7 23 0 0
BITMAP
0e
1c
18
30
00
f8
38
38
38
38
38
38
38
38
38
38
38
38
38
38
38
38
fe
ENDCHAR
STARTCHAR cacute
ENCODING 230
SWIDTH 509 0
DWIDTH 13 0
BBX 10 18 1 0
BITMAP
01c0
0380
0300
0600
0000
0fc0
38c0
70c0
60c0
e000
e000
e000
e000
e000
7000
7840
3fc0
0f80
ENDCHAR
STARTCHAR ccedilla
ENCODING 231
SWIDTH 509 0
DWIDTH 13 0
BBX 10 18 1 -5
BITMAP
0fc0
38c0
70c0
60c0
e000
e000
e000
e000
e000
7000
7840
3fc0
0f80
0800
0800
0600
0600
1c00
ENDCHAR
STARTCHAR ccaron
ENCODING 232
SWIDTH 509 0
DWIDTH 13 0
BBX 10 18 1 0
BITMAP
30c0
1980
0f00
0f00
0000
0fc0
38c0
70c0
60c0
e000
e000
e000
e000
e000
7000
7840
3fc0
0f80
ENDCHAR
STARTCHAR eacute
ENCODING 233
SWIDTH 530 0
DWIDTH 13 0
BBX 11 18 1 0
BITMAP
0700
0e00
0c00
1800
0000
1f00
31c0
70c0
60e0
e0e0
ffe0
e000
e000
e000
7000
7820
3fe0
0f80
ENDCHAR
STARTCHAR eogonek
ENCODING 234
SWIDTH 530 0
DWIDTH 13 0
BBX 11 17 1 -4
BITMAP
1f00
31c0
70c0
60e0
e0e0
ffe0
e000
e000
e000
7000
7820
3fe0
0f80
0600
0c00
0c00
0700
ENDCHAR
STARTCHAR ediaeresis
ENCODING 235
SWIDTH 530 0
DWIDTH 13 0
BBX 11 17 1 0
BITMAP
3180
3180
3180
0000
1f00
31c0
70c0
60e0
e0e0
ffe0
e000
e000
e000
7000
7820
3fe0
0f80
ENDCHAR
STARTCHAR ecaron
ENCODING 236
SWIDTH 530 0
DWIDTH 13 0
BBX 11 18 1 0
BITMAP
30c0
1980
0f00
0f00
0000
1f00
31c0
70c0
60e0
e0e0
ffe0
e000
e000
e000
7000
7820
3fe0
0f80
ENDCHAR
STARTCHAR iacute
ENCODING 237
SWIDTH 307 0
DWIDTH 8 0
BBX 7 18 0 0
BITMAP
1c
38
30
60
00
f8
38
38
38
38
38
38
38
38
38
38
38
fe
ENDCHAR
STARTCHAR icircumflex
ENCODING 238
SWIDTH 307 0
DWIDTH 8 0
BBX 8 18 1 0
BITMAP
3c
3c
66
c3
00
7c
1c
1c
1c
1c
1c
1c
1c
1c
1c
1c
1c
7f
ENDCHAR
STARTCHAR dcaron
ENCODING 239
SWIDTH 720 0
DWIDTH 18 0
BBX 16 20 1 0
BITMAP
0007
0007
01f3
0073
0073
0076
0070
1e70
3f70
70f0
6070
e070
e070
e070
e070
e070
f070
70f0
7f78
3c7c
ENDCHAR
STARTCHAR dstroke
ENCODING 240
SWIDTH 680 0
DWIDTH 17 0
BBX 15 18 1 0
BITMAP
01f0
0070
03fe
03fe
0070
1e70
3f70
70f0
6070
e070
e070
e070
e070
e070
f070
70f0
7f78
3c7c
ENDCHAR
STARTCHAR nacute
ENCODING 241
SWIDTH 633 0
DWIDTH 16 0
BBX 15 18 1 0
BITMAP
00e0
01c0
0180
0300
0000
f8e0
7bf0
3e38
3838
3838
3838
3838
3838
3838
3838
3838
3838
fefe
ENDCHAR
STARTCHAR ncaron
ENCODING 242
SWIDTH 633 0
DWIDTH 16 0
BBX 15 18 1 0
BITMAP
1860
0cc0
0780
0780
0000
f8e0
7bf0
3e38
3838
3838
3838
3838
3838
3838
3838
3838
3838
fefe
ENDCHAR
STARTCHAR oacute
ENCODING 243
SWIDTH 602 0
DWIDTH 15 0
BBX 13 18 1 0
BITMAP
0380
0700
0600
0c00
0000
0f80
38e0
7070
7070
e038
e038
e038
e038
e038
6030
7070
38e0
0f80
ENDCHAR
STARTCHAR ocircumflex
ENCODING 244
SWIDTH 602 0
DWIDTH 15 0
BBX 13 18 1 0
BITMAP
0f00
0f00
1980
30c0
0000
0f80
38e0
7070
7070
e038
e038
e038
e038
e038
6030
7070
38e0
0f80
ENDCHAR
STARTCHAR odoubleacute
ENCODING 245
SWIDTH 602 0
DWIDTH 15 0
BBX 13 18 1 0
BITMAP
01b0
0160
0240
0480
0000
0f80
38e0
7070
7070
e038
e038
e038
e038
e038
6030
7070
38e0
0f80
ENDCHAR
STARTCHAR odiaeresis
ENCODING 246
SWIDTH 602 0
DWIDTH 15 0
BBX 13 17 1 0
BITMAP
18c0
18c0
18c0
0000
0f80
38e0
7070
7070
e038
e038
e038
e038
e038
6030
7070
38e0
0f80
ENDCHAR
STARTCHAR division
ENCODING 247
SWIDTH 608 0
DWIDTH 15 0
BBX 15 12 0 1
BITMAP
0380
0380
0380
0000
0000
fffe
fffe
0000
0000
0380
0380
0380
ENDCHAR
STARTCHAR rcaron
ENCODING 248
SWIDTH 440 0
DWIDTH 11 0
BBX 10 18 0 0
BITMAP
6180
3300
1e00
1e00
0000
f9c0
3bc0
3cc0
38c0
3800
3800
3800
3800
3800
3800
3800
3800
ff00
ENDCHAR
STARTCHAR uring
ENCODING 249
SWIDTH 633 0
DWIDTH 16 0
BBX 15 18 0 0
BITMAP
0300
0480
0480
0300
0000
f8f8
3838
3838
3838
3838
3838
3838
3838
3838
3838
38f8
1fbc
0e3e
ENDCHAR
STARTCHAR uacute
ENCODING 250
SWIDTH 633 0
DWIDTH 16 0
BBX 15 18 0 0
BITMAP
00e0
01c0
0180
0300
0000
f8f8
3838
3838
3838
3838
3838
3838
3838
3838
3838
38f8
1fbc
0e3e
ENDCHAR
STARTCHAR udoubleacute
ENCODING 251
SWIDTH 633 0
DWIDTH 16 0
BBX 15 18 0 0
BITMAP
01b0
0160
0240
0480
0000
f8f8
3838
3838
3838
3838
3838
3838
3838
3838
3838
38f8
1fbc
0e3e
ENDCHAR
STARTCHAR udiaeresis
ENCODING 252
SWIDTH 633 0
DWIDTH 16 0
BBX 15 17 0 0
BITMAP
0c60
0c60
0c60
0000
f8f8
3838
3838
3838
3838
3838
3838
3838
3838
3838
38f8
1fbc
0e3e
ENDCHAR
STARTCHAR yacute
ENCODING 253
SWIDTH 551 0
DWIDTH 14 0
BBX 14 23 0 -5
BITMAP
01c0
0380
0300
0600
0000
fc3c
7008
7818
3810
3c30
1c20
1e20
0e40
0e40
0780
0780
0700
0300
0200
0600
0c00
1c00
3c00
ENDCHAR
STARTCHAR tcedilla
ENCODING 254
SWIDTH 392 0
DWIDTH 10 0
BBX 9 22 1 -5
BITMAP
1800
3800
3800
3800
ff80
3800
3800
3800
3800
3800
3800
3800
3800
3800
3800
1c00
0f80
0c00
0800
0600
0600
1c00
ENDCHAR
STARTCHAR abovedot
ENCODING 255
SWIDTH 602 0
DWIDTH 15 0
BBX 2 3 7 15
BITMAP
c0
c0
c0
ENDCHAR
ENDFONT
